<svg width="155" height="156" viewBox="0 0 155 156" fill="none" xmlns="http://www.w3.org/2000/svg">
<path d="M154.843 138.317C152.947 134.289 147.703 133.533 143.802 134.385C139.758 135.269 137.278 139.582 139.678 143.254C142.086 146.942 147.539 145.354 150.835 147.306C152.279 148.162 152.431 149.719 151.267 150.907C150.307 151.887 148.935 152.219 147.627 152.387C145.498 152.659 142.65 152.163 141.15 150.483C139.866 149.047 137.766 151.163 139.042 152.591C141.734 155.611 146.715 155.907 150.343 154.851C154.331 153.687 156.488 149.283 153.759 145.878C151.015 142.454 146.058 144.086 142.666 142.094C141.542 141.434 141.494 139.786 142.07 138.782C142.658 137.757 144.238 137.341 145.266 137.117C147.735 136.577 151.127 137.393 152.275 139.826C153.087 141.558 155.655 140.046 154.843 138.317Z" fill="#B5B5B5"/>
<path d="M130.349 135.517C130.349 134.685 131.025 134.009 131.857 134.009C132.689 134.009 133.365 134.685 133.365 135.517V153.943C133.365 154.775 132.689 155.451 131.857 155.451C131.025 155.451 130.349 154.775 130.349 153.943V135.517Z" fill="#B5B5B5"/>
<path d="M133.993 127.608C133.993 128.788 133.037 129.745 131.857 129.745C130.677 129.745 129.721 128.788 129.721 127.608C129.721 126.428 130.677 125.472 131.857 125.472C133.037 125.472 133.993 126.428 133.993 127.608Z" fill="#B5B5B5"/>
<path d="M122.244 137.249C122.164 137.165 122.08 137.081 121.996 137.001C120.628 135.673 118.9 134.705 116.975 134.261C116.191 134.077 115.379 133.981 114.539 133.981C114.167 133.981 113.803 134.001 113.443 134.037C110.979 134.285 108.763 135.369 107.082 137.001C106.998 137.081 106.918 137.161 106.842 137.241C105.05 139.089 103.918 141.582 103.826 144.338V145.074C103.918 147.83 105.05 150.319 106.842 152.167C106.922 152.251 107.002 152.331 107.086 152.411C108.767 154.039 110.983 155.123 113.443 155.371C113.803 155.407 114.167 155.427 114.539 155.427C115.379 155.427 116.191 155.331 116.975 155.147C118.9 154.703 120.624 153.739 121.992 152.411C122.08 152.331 122.164 152.247 122.244 152.159V153.919C122.244 154.335 122.412 154.711 122.688 154.987C122.96 155.259 123.336 155.427 123.752 155.427C124.168 155.427 124.544 155.259 124.816 154.987C125.092 154.711 125.26 154.335 125.26 153.919V144.706C125.26 141.81 124.112 139.177 122.244 137.249ZM116.975 152.015C116.211 152.271 115.391 152.411 114.539 152.411C114.167 152.411 113.799 152.383 113.443 152.331C109.835 151.819 107.03 148.802 106.842 145.102C106.838 144.97 106.834 144.838 106.834 144.706C106.834 144.574 106.838 144.442 106.842 144.31C107.03 140.606 109.835 137.593 113.443 137.081V137.001H114.539C115.391 137.001 116.211 137.141 116.975 137.397C120.04 138.413 122.244 141.302 122.244 144.706C122.244 148.106 120.04 150.999 116.975 152.015Z" fill="#B5B5B5"/>
<path d="M100.03 153.907C100.03 154.323 99.8618 154.699 99.5897 154.975C99.3137 155.247 98.9377 155.415 98.5216 155.415H80.0958C79.9958 155.415 79.8918 155.407 79.7918 155.383C79.7438 155.375 79.6958 155.363 79.6477 155.347C79.5997 155.331 79.5557 155.315 79.5077 155.295C79.3317 155.223 79.1717 155.115 79.0277 154.975C78.8917 154.839 78.7797 154.675 78.7077 154.495C78.6877 154.447 78.6716 154.403 78.6556 154.355C78.6396 154.307 78.6276 154.259 78.6196 154.211L78.5876 153.907C78.5876 153.807 78.5956 153.703 78.6196 153.603C78.6276 153.555 78.6396 153.507 78.6556 153.459C78.6716 153.411 78.6877 153.367 78.7077 153.319C78.7797 153.143 78.8877 152.983 79.0277 152.839L94.8613 137.013H80.0958C79.2637 137.013 78.5876 136.337 78.5876 135.501C78.5876 135.085 78.7557 134.709 79.0277 134.437C79.3037 134.161 79.6798 133.993 80.0958 133.993H98.5216C99.3537 133.993 100.03 134.669 100.03 135.501C100.03 135.865 99.9018 136.201 99.6857 136.461L99.4657 136.681L83.7402 152.399H98.5216C99.3537 152.399 100.03 153.075 100.03 153.907Z" fill="#B5B5B5"/>
<path d="M72.4551 135.493V144.706C72.4551 147.602 71.307 150.231 69.4388 152.159C69.3588 152.247 69.2748 152.331 69.1868 152.411C67.8186 153.739 66.0945 154.703 64.1703 155.147C63.3862 155.331 62.5741 155.427 61.734 155.427C61.362 155.427 60.9979 155.407 60.6379 155.371C58.1777 155.123 55.9614 154.039 54.2813 152.411C54.1973 152.331 54.1172 152.251 54.0372 152.167C52.2451 150.319 51.113 147.83 51.0209 145.074C51.0169 144.954 51.0129 144.83 51.0129 144.706C51.0129 144.582 51.0169 144.458 51.0209 144.338V135.649C51.0169 135.597 51.0129 135.545 51.0129 135.493C51.0129 135.073 51.181 134.697 51.457 134.425H51.461C51.597 134.285 51.761 134.173 51.941 134.101C51.985 134.081 52.033 134.065 52.0811 134.049C52.1331 134.029 52.1891 134.017 52.2451 134.009C52.2851 134.001 52.3251 133.993 52.3651 133.989C52.4131 133.985 52.4691 133.981 52.5211 133.981H52.5291C52.9451 133.981 53.3212 134.149 53.5932 134.425C53.8692 134.697 54.0372 135.073 54.0372 135.493V145.102C54.2253 148.802 57.0295 151.819 60.6379 152.331C60.9939 152.383 61.362 152.411 61.734 152.411C62.5861 152.411 63.4062 152.271 64.1703 152.015C67.2346 150.999 69.4388 148.106 69.4388 144.706V135.493C69.4388 134.657 70.1149 133.981 70.9469 133.981C71.779 133.981 72.4551 134.657 72.4551 135.493Z" fill="#B5B5B5"/>
<path d="M72.455 153.919C72.455 154.751 71.779 155.427 70.9469 155.427C70.1148 155.427 69.4387 154.751 69.4387 153.919V135.493C69.4387 134.661 70.1148 133.985 70.9469 133.985C71.779 133.985 72.455 134.661 72.455 135.493V153.919Z" fill="#B5B5B5"/>
<path d="M45.4804 135.533C45.4804 136.377 44.7964 137.061 43.9523 137.061C43.9203 137.061 43.8883 137.061 43.8603 137.057C43.8523 137.057 43.8443 137.057 43.8363 137.053C43.8043 137.049 43.7723 137.045 43.7403 137.045C43.5002 137.017 43.2562 137.005 43.0042 137.005C38.7398 137.005 35.2794 140.466 35.2794 144.73V152.227C35.2714 152.219 35.2594 152.207 35.2514 152.199V153.943C35.2514 154.775 34.5793 155.451 33.7433 155.451C33.3272 155.451 32.9512 155.283 32.6792 155.011C32.4031 154.735 32.2351 154.359 32.2351 153.943V135.517C32.2351 134.681 32.9112 134.005 33.7433 134.005C34.1593 134.005 34.5393 134.173 34.8114 134.449C35.0834 134.721 35.2514 135.097 35.2514 135.517V137.257C37.2076 135.225 39.9559 133.961 43.0042 133.961C43.3242 133.961 43.6402 133.977 43.9523 134.005H43.9563C43.9723 134.005 43.9883 134.009 44.0043 134.009C44.0403 134.009 44.0723 134.009 44.1043 134.017C44.1123 134.017 44.1203 134.017 44.1243 134.021C44.1403 134.025 44.1563 134.025 44.1723 134.025C44.1883 134.025 44.2043 134.029 44.2203 134.033C44.2323 134.033 44.2443 134.033 44.2523 134.037C44.2723 134.041 44.2883 134.045 44.3043 134.049C44.9804 134.205 45.4804 134.809 45.4804 135.533Z" fill="#B5B5B5"/>
<path d="M26.0264 150.935C26.0264 151.359 25.8504 151.735 25.5784 152.015C25.4744 152.095 25.3784 152.171 25.2743 152.247C25.2743 152.247 25.2743 152.251 25.2703 152.251C25.1543 152.315 25.0343 152.371 24.9063 152.407C25.0303 152.375 25.1503 152.323 25.2623 152.259C22.6341 154.235 19.3698 155.403 15.8334 155.403C7.16454 155.403 0.131836 148.374 0.131836 139.702C0.131836 131.033 7.16454 124 15.8334 124C19.2977 124 22.4981 125.124 25.0943 127.024C25.1023 127.028 25.1103 127.032 25.1183 127.04C25.5784 127.296 25.8904 127.792 25.8904 128.356C25.8904 128.776 25.7144 129.157 25.4424 129.433C25.3384 129.513 25.2423 129.589 25.1383 129.665C25.1383 129.665 25.1383 129.669 25.1343 129.669C24.9103 129.801 24.6463 129.881 24.3703 129.881C23.9862 129.881 23.6342 129.737 23.3702 129.501C21.2619 127.944 18.6577 127.02 15.8334 127.02C8.8287 127.02 3.15214 132.697 3.15214 139.702C3.15214 146.706 8.8287 152.387 15.8334 152.387C18.6937 152.387 21.33 151.443 23.4502 149.843C23.7222 149.579 24.0902 149.415 24.5063 149.415C25.3424 149.415 26.0264 150.099 26.0264 150.935Z" fill="#B5B5B5"/>
<path d="M121 81.0838C121 99.2182 106.271 113.916 88.099 113.916C79.7834 113.916 72.1837 110.837 66.3903 105.757L112.648 59.2253C117.842 65.0298 121 72.6897 121 81.0838Z" fill="#00D7CF"/>
<path d="M88.0624 0C78.4576 0 69.8172 4.10446 63.7984 10.6564L63.7619 10.62L40.7341 33.7386C40.648 33.8246 40.5585 33.9106 40.4756 33.9999C34.6159 39.93 31 48.0662 31 57.0523C31 61.1866 31.7656 65.1455 33.1642 68.7902C34.8645 73.2221 37.4994 77.1943 40.8336 80.462L64.0436 103.485L87.1676 80.2668L110.398 56.9432L110.431 56.9101C116.91 50.9138 120.964 42.3444 120.964 32.8324C120.964 14.7013 106.231 0 88.0624 0ZM63.9011 78.848C60.8984 78.848 58.0381 78.246 55.4331 77.1546C47.5318 73.8505 41.9836 66.0583 41.9836 56.9763C41.9836 44.8977 51.7973 35.1045 63.9011 35.1045C72.989 35.1045 80.7875 40.6279 84.1085 48.4928C85.2088 51.1024 85.8186 53.9665 85.8186 56.9763C85.8186 69.0548 76.005 78.848 63.9011 78.848Z" fill="#B5B5B5"/>
</svg>
