<svg width="34" height="44" viewBox="0 0 34 44" fill="none" xmlns="http://www.w3.org/2000/svg">
<path d="M34 31.5359C34 38.3867 28.4358 43.9393 21.5707 43.9393C18.4293 43.9393 15.5582 42.776 13.3696 40.8569L30.8448 23.2783C32.8068 25.4711 34 28.3648 34 31.5359Z" fill="white"/>
<path d="M21.5569 0.904297C17.9284 0.904297 14.6643 2.45487 12.3905 4.93004L12.3767 4.9163L3.67734 13.65C3.64478 13.6825 3.61098 13.715 3.57967 13.7487C1.36601 15.989 0 19.0626 0 22.4574C0 24.0192 0.289228 25.5148 0.817602 26.8917C1.45992 28.566 2.45531 30.0666 3.7149 31.301L12.4832 39.9985L21.2189 31.2273L29.9946 22.4162L30.0071 22.4037C32.4549 20.1384 33.9862 16.9011 33.9862 13.3076C33.9862 6.45813 28.4208 0.904297 21.5569 0.904297ZM12.4293 30.6913C11.2949 30.6913 10.2144 30.4639 9.23027 30.0516C6.24533 28.8034 4.14936 25.8597 4.14936 22.4287C4.14936 17.8657 7.85675 14.166 12.4293 14.166C15.8625 14.166 18.8086 16.2526 20.0632 19.2238C20.4789 20.2096 20.7093 21.2917 20.7093 22.4287C20.7093 26.9917 17.0019 30.6913 12.4293 30.6913Z" fill="white"/>
</svg>
