<svg width="16" height="12" viewBox="0 0 16 12" fill="none" xmlns="http://www.w3.org/2000/svg">
<path d="M14.5001 0H1.49987C1.10225 0.000530541 0.721055 0.158726 0.439889 0.4399C0.158723 0.721074 0.000530526 1.10228 0 1.49992L0 10.5001C0.000530526 10.8977 0.158723 11.2789 0.439889 11.5601C0.721055 11.8413 1.10225 11.9995 1.49987 12H14.5001C14.8978 11.9995 15.2789 11.8413 15.5601 11.5601C15.8413 11.2789 15.9995 10.8977 16 10.5001V1.49992C15.9995 1.10228 15.8413 0.721074 15.5601 0.4399C15.2789 0.158726 14.8978 0.000530541 14.5001 0ZM14.5001 1.00262C14.566 1.00271 14.6312 1.01588 14.692 1.04138L8 6.83852L1.30805 1.03871C1.36879 1.01323 1.434 1.00005 1.49987 0.999946L14.5001 1.00262ZM14.5001 11.0027H1.49987C1.36733 11.0026 1.24027 10.9498 1.14655 10.8561C1.05282 10.7624 1.00009 10.6353 0.999916 10.5028V2.09547L7.67249 7.87857C7.76346 7.95726 7.87972 8.00057 8 8.00057C8.12028 8.00057 8.23654 7.95726 8.32751 7.87857L15.0001 2.09547V10.5001C14.9999 10.6326 14.9472 10.7597 14.8535 10.8534C14.7597 10.9471 14.6327 10.9999 14.5001 11.0001V11.0027Z" fill="#373737"/>
</svg>
