<svg width="74" height="81" viewBox="0 0 74 81" fill="none" xmlns="http://www.w3.org/2000/svg">
<path d="M1.36 77V65.64H8.864V66.92H2.8V70.712H7.904V71.912H2.8V77H1.36ZM8.90188 74.584C8.90188 74.0507 9.05121 73.592 9.34988 73.208C9.65921 72.8133 10.0805 72.5093 10.6139 72.296C11.1472 72.0827 11.7659 71.976 12.4699 71.976C12.8432 71.976 13.2379 72.008 13.6539 72.072C14.0699 72.1253 14.4379 72.2107 14.7579 72.328V71.72C14.7579 71.08 14.5659 70.5787 14.1819 70.216C13.7979 69.8427 13.2539 69.656 12.5499 69.656C12.0912 69.656 11.6485 69.7413 11.2219 69.912C10.8059 70.072 10.3632 70.3067 9.89388 70.616L9.38188 69.624C9.92588 69.2507 10.4699 68.9733 11.0139 68.792C11.5579 68.6 12.1232 68.504 12.7099 68.504C13.7765 68.504 14.6192 68.8027 15.2379 69.4C15.8565 69.9867 16.1659 70.808 16.1659 71.864V75.4C16.1659 75.5707 16.1979 75.6987 16.2619 75.784C16.3365 75.8587 16.4539 75.9013 16.6139 75.912V77C16.4752 77.0213 16.3525 77.0373 16.2459 77.048C16.1499 77.0587 16.0699 77.064 16.0059 77.064C15.6752 77.064 15.4245 76.9733 15.2539 76.792C15.0939 76.6107 15.0032 76.4187 14.9819 76.216L14.9499 75.688C14.5872 76.1573 14.1125 76.52 13.5259 76.776C12.9392 77.032 12.3579 77.16 11.7819 77.16C11.2272 77.16 10.7312 77.048 10.2939 76.824C9.85654 76.5893 9.51521 76.28 9.26988 75.896C9.02454 75.5013 8.90188 75.064 8.90188 74.584ZM14.3419 75.176C14.4699 75.0267 14.5712 74.8773 14.6459 74.728C14.7205 74.568 14.7579 74.4347 14.7579 74.328V73.288C14.4272 73.16 14.0805 73.064 13.7179 73C13.3552 72.9253 12.9979 72.888 12.6459 72.888C11.9312 72.888 11.3499 73.032 10.9019 73.32C10.4645 73.5973 10.2459 73.9813 10.2459 74.472C10.2459 74.7387 10.3152 75 10.4539 75.256C10.6032 75.5013 10.8165 75.704 11.0939 75.864C11.3819 76.024 11.7339 76.104 12.1499 76.104C12.5872 76.104 13.0032 76.0187 13.3979 75.848C13.7925 75.6667 14.1072 75.4427 14.3419 75.176ZM22.1133 77.16C21.4839 77.16 20.9079 77.048 20.3853 76.824C19.8733 76.5893 19.4253 76.2693 19.0413 75.864C18.6679 75.4587 18.3746 74.9947 18.1613 74.472C17.9586 73.9493 17.8573 73.3947 17.8573 72.808C17.8573 72.0187 18.0333 71.2987 18.3853 70.648C18.7373 69.9973 19.2333 69.48 19.8733 69.096C20.5133 68.7013 21.2546 68.504 22.0973 68.504C22.9186 68.504 23.6333 68.6907 24.2413 69.064C24.8599 69.4267 25.3186 69.9173 25.6173 70.536L24.2413 70.968C24.0279 70.5733 23.7293 70.2693 23.3453 70.056C22.9613 69.832 22.5346 69.72 22.0653 69.72C21.5533 69.72 21.0839 69.8533 20.6573 70.12C20.2413 70.3867 19.9106 70.7547 19.6653 71.224C19.4199 71.6827 19.2973 72.2107 19.2973 72.808C19.2973 73.3947 19.4199 73.928 19.6653 74.408C19.9213 74.8773 20.2573 75.2507 20.6733 75.528C21.0999 75.8053 21.5693 75.944 22.0813 75.944C22.4119 75.944 22.7266 75.8853 23.0253 75.768C23.3346 75.6507 23.6013 75.496 23.8253 75.304C24.0599 75.1013 24.2199 74.8827 24.3053 74.648L25.6813 75.064C25.5106 75.4693 25.2493 75.832 24.8973 76.152C24.5559 76.4613 24.1453 76.7067 23.6653 76.888C23.1959 77.0693 22.6786 77.16 22.1133 77.16ZM30.8945 77.16C30.2652 77.16 29.6892 77.048 29.1665 76.824C28.6545 76.5893 28.2065 76.2747 27.8225 75.88C27.4492 75.4747 27.1558 75.0107 26.9425 74.488C26.7398 73.9653 26.6385 73.4107 26.6385 72.824C26.6385 72.0347 26.8198 71.3147 27.1825 70.664C27.5452 70.0133 28.0465 69.4907 28.6865 69.096C29.3372 68.7013 30.0785 68.504 30.9105 68.504C31.7532 68.504 32.4838 68.7067 33.1025 69.112C33.7318 69.5067 34.2172 70.0293 34.5585 70.68C34.9105 71.32 35.0865 72.0133 35.0865 72.76C35.0865 72.8667 35.0812 72.9733 35.0705 73.08C35.0705 73.176 35.0652 73.2507 35.0545 73.304H28.1265C28.1692 73.848 28.3185 74.3333 28.5745 74.76C28.8412 75.176 29.1825 75.5067 29.5985 75.752C30.0145 75.9867 30.4625 76.104 30.9425 76.104C31.4545 76.104 31.9345 75.976 32.3825 75.72C32.8412 75.464 33.1558 75.128 33.3265 74.712L34.5425 75.048C34.3612 75.4533 34.0892 75.816 33.7265 76.136C33.3745 76.456 32.9532 76.7067 32.4625 76.888C31.9825 77.0693 31.4598 77.16 30.8945 77.16ZM28.0785 72.328H33.7745C33.7318 71.784 33.5772 71.304 33.3105 70.888C33.0438 70.472 32.7025 70.1467 32.2865 69.912C31.8705 69.6773 31.4118 69.56 30.9105 69.56C30.4198 69.56 29.9665 69.6773 29.5505 69.912C29.1345 70.1467 28.7932 70.472 28.5265 70.888C28.2705 71.304 28.1212 71.784 28.0785 72.328ZM40.9396 77.16C40.289 77.16 39.697 77 39.1636 76.68C38.6303 76.36 38.209 75.944 37.8996 75.432V77H36.6516V65.32H38.0596V70.312C38.4116 69.768 38.8436 69.3307 39.3556 69C39.8676 68.6693 40.465 68.504 41.1476 68.504C41.7236 68.504 42.241 68.6267 42.6996 68.872C43.1583 69.1067 43.5476 69.432 43.8676 69.848C44.1983 70.2533 44.449 70.7173 44.6196 71.24C44.801 71.752 44.8916 72.2907 44.8916 72.856C44.8916 73.4427 44.7903 73.9973 44.5876 74.52C44.3956 75.032 44.1183 75.4907 43.7556 75.896C43.393 76.2907 42.9716 76.6 42.4916 76.824C42.0223 77.048 41.505 77.16 40.9396 77.16ZM40.5876 75.944C41.0036 75.944 41.3876 75.8587 41.7396 75.688C42.0916 75.5173 42.3956 75.288 42.6516 75C42.9076 74.712 43.105 74.3813 43.2436 74.008C43.3823 73.6347 43.4516 73.2507 43.4516 72.856C43.4516 72.312 43.3343 71.8 43.0996 71.32C42.8756 70.84 42.5556 70.456 42.1396 70.168C41.7343 69.8693 41.2596 69.72 40.7156 69.72C40.321 69.72 39.953 69.8107 39.6116 69.992C39.2703 70.1733 38.9663 70.4133 38.6996 70.712C38.4436 71 38.2303 71.32 38.0596 71.672V74.088C38.113 74.3547 38.225 74.6 38.3956 74.824C38.5663 75.048 38.7743 75.2453 39.0196 75.416C39.265 75.576 39.521 75.704 39.7876 75.8C40.065 75.896 40.3316 75.944 40.5876 75.944ZM50.2684 77.16C49.639 77.16 49.0684 77.048 48.5564 76.824C48.0444 76.5893 47.6017 76.2747 47.2284 75.88C46.855 75.4747 46.567 75.0107 46.3644 74.488C46.1617 73.9653 46.0604 73.416 46.0604 72.84C46.0604 72.2533 46.1617 71.6987 46.3644 71.176C46.567 70.6533 46.855 70.1947 47.2284 69.8C47.6017 69.3947 48.0444 69.08 48.5564 68.856C49.079 68.6213 49.6497 68.504 50.2684 68.504C50.8977 68.504 51.4684 68.6213 51.9804 68.856C52.4924 69.08 52.935 69.3947 53.3084 69.8C53.6924 70.1947 53.9857 70.6533 54.1884 71.176C54.391 71.6987 54.4924 72.2533 54.4924 72.84C54.4924 73.416 54.391 73.9653 54.1884 74.488C53.9857 75.0107 53.6977 75.4747 53.3244 75.88C52.951 76.2747 52.503 76.5893 51.9804 76.824C51.4684 77.048 50.8977 77.16 50.2684 77.16ZM47.5004 72.856C47.5004 73.432 47.623 73.9547 47.8684 74.424C48.1244 74.8933 48.4604 75.2667 48.8764 75.544C49.2924 75.8107 49.7564 75.944 50.2684 75.944C50.7804 75.944 51.2444 75.8053 51.6604 75.528C52.087 75.2507 52.423 74.8773 52.6684 74.408C52.9244 73.928 53.0524 73.4 53.0524 72.824C53.0524 72.248 52.9244 71.7253 52.6684 71.256C52.423 70.7867 52.087 70.4133 51.6604 70.136C51.2444 69.8587 50.7804 69.72 50.2684 69.72C49.7564 69.72 49.2924 69.864 48.8764 70.152C48.4604 70.4293 48.1244 70.8027 47.8684 71.272C47.623 71.7413 47.5004 72.2693 47.5004 72.856ZM59.8465 77.16C59.2172 77.16 58.6465 77.048 58.1345 76.824C57.6225 76.5893 57.1798 76.2747 56.8065 75.88C56.4332 75.4747 56.1452 75.0107 55.9425 74.488C55.7398 73.9653 55.6385 73.416 55.6385 72.84C55.6385 72.2533 55.7398 71.6987 55.9425 71.176C56.1452 70.6533 56.4332 70.1947 56.8065 69.8C57.1798 69.3947 57.6225 69.08 58.1345 68.856C58.6572 68.6213 59.2278 68.504 59.8465 68.504C60.4758 68.504 61.0465 68.6213 61.5585 68.856C62.0705 69.08 62.5132 69.3947 62.8865 69.8C63.2705 70.1947 63.5638 70.6533 63.7665 71.176C63.9692 71.6987 64.0705 72.2533 64.0705 72.84C64.0705 73.416 63.9692 73.9653 63.7665 74.488C63.5638 75.0107 63.2758 75.4747 62.9025 75.88C62.5292 76.2747 62.0812 76.5893 61.5585 76.824C61.0465 77.048 60.4758 77.16 59.8465 77.16ZM57.0785 72.856C57.0785 73.432 57.2012 73.9547 57.4465 74.424C57.7025 74.8933 58.0385 75.2667 58.4545 75.544C58.8705 75.8107 59.3345 75.944 59.8465 75.944C60.3585 75.944 60.8225 75.8053 61.2385 75.528C61.6652 75.2507 62.0012 74.8773 62.2465 74.408C62.5025 73.928 62.6305 73.4 62.6305 72.824C62.6305 72.248 62.5025 71.7253 62.2465 71.256C62.0012 70.7867 61.6652 70.4133 61.2385 70.136C60.8225 69.8587 60.3585 69.72 59.8465 69.72C59.3345 69.72 58.8705 69.864 58.4545 70.152C58.0385 70.4293 57.7025 70.8027 57.4465 71.272C57.2012 71.7413 57.0785 72.2693 57.0785 72.856ZM71.6646 77L68.7686 72.936L67.1846 74.424V77H65.7766V65.32H67.1846V72.952L71.5046 68.664H73.0246L69.6966 72.12L73.1846 77H71.6646Z" fill="#363636"/>
<rect x="9" width="56" height="56" rx="28" fill="#0060EF"/>
<path d="M38.808 23.246V21.078C38.803 20.8252 38.818 20.5724 38.853 20.322C38.8868 20.1346 38.9568 19.9556 39.059 19.795C39.1789 19.6126 39.365 19.4839 39.578 19.436C39.8906 19.3613 40.2117 19.3277 40.533 19.336H42.701V15H39.235C37.229 15 35.7883 15.476 34.913 16.428C33.9588 17.6137 33.4896 19.117 33.6 20.635V23.246H31V27.583H33.6V40.166H38.808V27.583H42.274L42.732 23.246H38.808Z" fill="white"/>
</svg>
