<svg width="56" height="81" viewBox="0 0 56 81" fill="none" xmlns="http://www.w3.org/2000/svg">
<path d="M6.92 77.08C6.17333 77.08 5.47467 76.92 4.824 76.6C4.184 76.2693 3.624 75.832 3.144 75.288C2.664 74.7333 2.29067 74.1147 2.024 73.432C1.75733 72.7387 1.624 72.024 1.624 71.288C1.624 70.52 1.75733 69.7947 2.024 69.112C2.29067 68.4187 2.65867 67.8053 3.128 67.272C3.608 66.7387 4.168 66.3227 4.808 66.024C5.45867 65.7147 6.16267 65.56 6.92 65.56C8.01867 65.56 8.92533 65.7893 9.64 66.248C10.3547 66.7067 10.8933 67.304 11.256 68.04L10.152 68.808C9.82133 68.1467 9.368 67.656 8.792 67.336C8.216 67.016 7.58133 66.856 6.888 66.856C6.312 66.856 5.78933 66.9787 5.32 67.224C4.85067 67.4693 4.44533 67.8053 4.104 68.232C3.77333 68.648 3.51733 69.1227 3.336 69.656C3.16533 70.1893 3.08 70.744 3.08 71.32C3.08 71.928 3.176 72.504 3.368 73.048C3.57067 73.5813 3.85333 74.056 4.216 74.472C4.57867 74.8773 5 75.1973 5.48 75.432C5.96 75.6667 6.47733 75.784 7.032 75.784C7.68267 75.784 8.30133 75.6187 8.888 75.288C9.47467 74.9573 10.0293 74.4507 10.552 73.768V75.256C9.528 76.472 8.31733 77.08 6.92 77.08ZM10.376 72.424H7.928V71.336H11.592V77H10.376V72.424ZM17.2059 77.16C16.5765 77.16 16.0059 77.048 15.4939 76.824C14.9819 76.5893 14.5392 76.2747 14.1659 75.88C13.7925 75.4747 13.5045 75.0107 13.3019 74.488C13.0992 73.9653 12.9979 73.416 12.9979 72.84C12.9979 72.2533 13.0992 71.6987 13.3019 71.176C13.5045 70.6533 13.7925 70.1947 14.1659 69.8C14.5392 69.3947 14.9819 69.08 15.4939 68.856C16.0165 68.6213 16.5872 68.504 17.2059 68.504C17.8352 68.504 18.4059 68.6213 18.9179 68.856C19.4299 69.08 19.8725 69.3947 20.2459 69.8C20.6299 70.1947 20.9232 70.6533 21.1259 71.176C21.3285 71.6987 21.4299 72.2533 21.4299 72.84C21.4299 73.416 21.3285 73.9653 21.1259 74.488C20.9232 75.0107 20.6352 75.4747 20.2619 75.88C19.8885 76.2747 19.4405 76.5893 18.9179 76.824C18.4059 77.048 17.8352 77.16 17.2059 77.16ZM14.4379 72.856C14.4379 73.432 14.5605 73.9547 14.8059 74.424C15.0619 74.8933 15.3979 75.2667 15.8139 75.544C16.2299 75.8107 16.6939 75.944 17.2059 75.944C17.7179 75.944 18.1819 75.8053 18.5979 75.528C19.0245 75.2507 19.3605 74.8773 19.6059 74.408C19.8619 73.928 19.9899 73.4 19.9899 72.824C19.9899 72.248 19.8619 71.7253 19.6059 71.256C19.3605 70.7867 19.0245 70.4133 18.5979 70.136C18.1819 69.8587 17.7179 69.72 17.2059 69.72C16.6939 69.72 16.2299 69.864 15.8139 70.152C15.3979 70.4293 15.0619 70.8027 14.8059 71.272C14.5605 71.7413 14.4379 72.2693 14.4379 72.856ZM26.784 77.16C26.1547 77.16 25.584 77.048 25.072 76.824C24.56 76.5893 24.1173 76.2747 23.744 75.88C23.3707 75.4747 23.0827 75.0107 22.88 74.488C22.6773 73.9653 22.576 73.416 22.576 72.84C22.576 72.2533 22.6773 71.6987 22.88 71.176C23.0827 70.6533 23.3707 70.1947 23.744 69.8C24.1173 69.3947 24.56 69.08 25.072 68.856C25.5947 68.6213 26.1653 68.504 26.784 68.504C27.4133 68.504 27.984 68.6213 28.496 68.856C29.008 69.08 29.4507 69.3947 29.824 69.8C30.208 70.1947 30.5013 70.6533 30.704 71.176C30.9067 71.6987 31.008 72.2533 31.008 72.84C31.008 73.416 30.9067 73.9653 30.704 74.488C30.5013 75.0107 30.2133 75.4747 29.84 75.88C29.4667 76.2747 29.0187 76.5893 28.496 76.824C27.984 77.048 27.4133 77.16 26.784 77.16ZM24.016 72.856C24.016 73.432 24.1387 73.9547 24.384 74.424C24.64 74.8933 24.976 75.2667 25.392 75.544C25.808 75.8107 26.272 75.944 26.784 75.944C27.296 75.944 27.76 75.8053 28.176 75.528C28.6027 75.2507 28.9387 74.8773 29.184 74.408C29.44 73.928 29.568 73.4 29.568 72.824C29.568 72.248 29.44 71.7253 29.184 71.256C28.9387 70.7867 28.6027 70.4133 28.176 70.136C27.76 69.8587 27.296 69.72 26.784 69.72C26.272 69.72 25.808 69.864 25.392 70.152C24.976 70.4293 24.64 70.8027 24.384 71.272C24.1387 71.7413 24.016 72.2693 24.016 72.856ZM36.0421 77.096C35.4768 77.096 34.9541 76.984 34.4741 76.76C34.0048 76.5253 33.5995 76.2107 33.2581 75.816C32.9168 75.4107 32.6501 74.952 32.4581 74.44C32.2768 73.928 32.1861 73.3947 32.1861 72.84C32.1861 72.2533 32.2768 71.6987 32.4581 71.176C32.6501 70.6533 32.9168 70.1947 33.2581 69.8C33.6101 69.3947 34.0208 69.08 34.4901 68.856C34.9595 68.6213 35.4821 68.504 36.0581 68.504C36.7515 68.504 37.3541 68.6747 37.8661 69.016C38.3888 69.3573 38.8261 69.7893 39.1781 70.312V68.648H40.4261V76.904C40.4261 77.6933 40.2341 78.36 39.8501 78.904C39.4768 79.448 38.9648 79.8587 38.3141 80.136C37.6741 80.424 36.9595 80.568 36.1701 80.568C35.2315 80.568 34.4635 80.4027 33.8661 80.072C33.2688 79.7413 32.7728 79.2933 32.3781 78.728L33.1941 78.008C33.5248 78.4987 33.9515 78.8667 34.4741 79.112C35.0075 79.3573 35.5728 79.48 36.1701 79.48C36.6821 79.48 37.1515 79.384 37.5781 79.192C38.0155 79.0107 38.3621 78.728 38.6181 78.344C38.8848 77.96 39.0181 77.48 39.0181 76.904V75.432C38.7088 75.944 38.2821 76.3493 37.7381 76.648C37.2048 76.9467 36.6395 77.096 36.0421 77.096ZM36.4741 75.944C36.7728 75.944 37.0608 75.8907 37.3381 75.784C37.6155 75.6773 37.8715 75.5387 38.1061 75.368C38.3408 75.1867 38.5381 74.984 38.6981 74.76C38.8581 74.536 38.9648 74.3067 39.0181 74.072V71.672C38.8688 71.288 38.6555 70.952 38.3781 70.664C38.1008 70.3653 37.7861 70.136 37.4341 69.976C37.0821 69.8053 36.7195 69.72 36.3461 69.72C35.9195 69.72 35.5355 69.8107 35.1941 69.992C34.8635 70.1733 34.5808 70.4187 34.3461 70.728C34.1115 71.0267 33.9301 71.3627 33.8021 71.736C33.6741 72.1093 33.6101 72.488 33.6101 72.872C33.6101 73.288 33.6848 73.6827 33.8341 74.056C33.9835 74.4187 34.1861 74.744 34.4421 75.032C34.6981 75.32 35.0021 75.544 35.3541 75.704C35.7061 75.864 36.0795 75.944 36.4741 75.944ZM42.7305 65.32H44.1385V74.84C44.1385 75.2987 44.2025 75.5813 44.3305 75.688C44.4585 75.7947 44.6132 75.848 44.7945 75.848C45.0185 75.848 45.2318 75.8267 45.4345 75.784C45.6372 75.7307 45.8078 75.6773 45.9465 75.624L46.1705 76.776C45.9358 76.872 45.6585 76.952 45.3385 77.016C45.0185 77.08 44.7358 77.112 44.4905 77.112C43.9465 77.112 43.5145 76.9573 43.1945 76.648C42.8852 76.3387 42.7305 75.9067 42.7305 75.352V65.32ZM50.9726 77.16C50.3433 77.16 49.7673 77.048 49.2446 76.824C48.7326 76.5893 48.2846 76.2747 47.9006 75.88C47.5273 75.4747 47.234 75.0107 47.0206 74.488C46.818 73.9653 46.7166 73.4107 46.7166 72.824C46.7166 72.0347 46.898 71.3147 47.2606 70.664C47.6233 70.0133 48.1246 69.4907 48.7646 69.096C49.4153 68.7013 50.1566 68.504 50.9886 68.504C51.8313 68.504 52.562 68.7067 53.1806 69.112C53.81 69.5067 54.2953 70.0293 54.6366 70.68C54.9886 71.32 55.1646 72.0133 55.1646 72.76C55.1646 72.8667 55.1593 72.9733 55.1486 73.08C55.1486 73.176 55.1433 73.2507 55.1326 73.304H48.2046C48.2473 73.848 48.3966 74.3333 48.6526 74.76C48.9193 75.176 49.2606 75.5067 49.6766 75.752C50.0926 75.9867 50.5406 76.104 51.0206 76.104C51.5326 76.104 52.0126 75.976 52.4606 75.72C52.9193 75.464 53.234 75.128 53.4046 74.712L54.6206 75.048C54.4393 75.4533 54.1673 75.816 53.8046 76.136C53.4526 76.456 53.0313 76.7067 52.5406 76.888C52.0606 77.0693 51.538 77.16 50.9726 77.16ZM48.1566 72.328H53.8526C53.81 71.784 53.6553 71.304 53.3886 70.888C53.122 70.472 52.7806 70.1467 52.3646 69.912C51.9486 69.6773 51.49 69.56 50.9886 69.56C50.498 69.56 50.0446 69.6773 49.6286 69.912C49.2126 70.1467 48.8713 70.472 48.6046 70.888C48.3486 71.304 48.1993 71.784 48.1566 72.328Z" fill="#363636"/>
<rect width="56" height="56" rx="28" fill="#FF5D5D"/>
<path d="M21.5409 30.8687L20.6702 34.1171L17.4896 34.1848C16.5275 32.3931 16.0164 30.394 16.0004 28.3604C15.9844 26.3268 16.464 24.3199 17.3977 22.5133V22.5133L20.2291 23.0325L21.4697 25.8467C20.9119 27.4785 20.9366 29.2531 21.5398 30.8687H21.5409Z" fill="white"/>
<path d="M40.7797 25.9257C41.2038 28.1542 41.0132 30.4563 40.2282 32.5847C39.4433 34.7132 38.0936 36.5877 36.324 38.0073V38.0073L32.7632 37.8258L32.2589 34.675C33.7315 33.8116 34.8629 32.4685 35.4637 30.8707H28.7808V25.9314H40.7797V25.9257Z" fill="white"/>
<path d="M36.3184 38.0075C34.888 39.1562 33.2224 39.9761 31.4396 40.4089C29.6569 40.8418 27.8007 40.877 26.0029 40.512C24.205 40.1471 22.5095 39.3909 21.0366 38.2972C19.5637 37.2036 18.3496 35.7991 17.4803 34.1836L21.5305 30.8685C21.9108 31.8822 22.508 32.8006 23.2803 33.5594C24.0525 34.3182 24.9812 34.8991 26.0014 35.2616C27.0216 35.624 28.1087 35.7592 29.1866 35.6578C30.2645 35.5563 31.3072 35.2205 32.2418 34.674L36.3184 38.0075Z" fill="white"/>
<path d="M36.4781 18.6401L32.4291 21.9551C31.4806 21.3644 30.4112 20.9951 29.3002 20.8748C28.1893 20.7545 27.0656 20.8862 26.0126 21.2602C24.9597 21.6342 24.0046 22.2408 23.2185 23.0349C22.4323 23.829 21.8354 24.7901 21.472 25.8468L17.4 22.5157C18.2589 20.8576 19.4784 19.4129 20.9689 18.2879C22.4594 17.1629 24.183 16.3861 26.013 16.0146C27.8431 15.643 29.7331 15.6862 31.5443 16.141C33.3555 16.5957 35.0418 17.4505 36.4793 18.6424L36.4781 18.6401Z" fill="white"/>
</svg>
