<svg width="76" height="81" viewBox="0 0 76 81" fill="none" xmlns="http://www.w3.org/2000/svg">
<path d="M1.36 77V65.64H2.8V77H1.36ZM12.5403 77H11.1323V72.328C11.1323 71.4427 10.9936 70.7973 10.7163 70.392C10.4496 69.976 10.0389 69.768 9.48425 69.768C9.10025 69.768 8.71625 69.864 8.33225 70.056C7.95892 70.248 7.62292 70.5093 7.32425 70.84C7.03625 71.16 6.82825 71.5333 6.70025 71.96V77H5.29225V68.648H6.57225V70.44C6.79625 70.0453 7.08425 69.704 7.43625 69.416C7.78825 69.128 8.18825 68.904 8.63625 68.744C9.08425 68.584 9.55358 68.504 10.0443 68.504C10.5243 68.504 10.9243 68.5947 11.2443 68.776C11.5749 68.9467 11.8309 69.192 12.0123 69.512C12.2043 69.8213 12.3376 70.1893 12.4123 70.616C12.4976 71.0427 12.5403 71.5067 12.5403 72.008V77ZM17.5938 77.16C16.9004 77.16 16.2498 77.048 15.6418 76.824C15.0338 76.5893 14.5111 76.2427 14.0738 75.784L14.6178 74.792C15.0978 75.24 15.5778 75.56 16.0578 75.752C16.5378 75.944 17.0284 76.04 17.5298 76.04C18.1058 76.04 18.5751 75.9333 18.9378 75.72C19.3004 75.496 19.4818 75.1707 19.4818 74.744C19.4818 74.4347 19.3858 74.2053 19.1938 74.056C19.0124 73.9067 18.7511 73.784 18.4098 73.688C18.0684 73.5813 17.6631 73.464 17.1938 73.336C16.6178 73.1653 16.1324 72.984 15.7378 72.792C15.3431 72.6 15.0444 72.36 14.8418 72.072C14.6391 71.784 14.5378 71.4213 14.5378 70.984C14.5378 70.4507 14.6764 70.0027 14.9538 69.64C15.2311 69.2667 15.6098 68.984 16.0898 68.792C16.5804 68.6 17.1351 68.504 17.7538 68.504C18.3724 68.504 18.9324 68.6 19.4338 68.792C19.9351 68.984 20.3671 69.2667 20.7298 69.64L20.0898 70.616C19.7591 70.2747 19.3964 70.024 19.0018 69.864C18.6071 69.6933 18.1644 69.608 17.6738 69.608C17.3858 69.608 17.1031 69.6453 16.8258 69.72C16.5484 69.784 16.3191 69.9067 16.1378 70.088C15.9564 70.2587 15.8658 70.504 15.8658 70.824C15.8658 71.0907 15.9351 71.304 16.0738 71.464C16.2231 71.6133 16.4364 71.7413 16.7138 71.848C17.0018 71.9547 17.3484 72.072 17.7538 72.2C18.3831 72.3813 18.9271 72.5627 19.3858 72.744C19.8551 72.9253 20.2178 73.16 20.4738 73.448C20.7298 73.736 20.8578 74.136 20.8578 74.648C20.8578 75.4373 20.5591 76.056 19.9618 76.504C19.3644 76.9413 18.5751 77.16 17.5938 77.16ZM26.8623 76.584C26.7449 76.6373 26.5849 76.7067 26.3823 76.792C26.1796 76.8773 25.9449 76.952 25.6783 77.016C25.4116 77.08 25.1289 77.112 24.8303 77.112C24.4889 77.112 24.1743 77.0533 23.8863 76.936C23.5983 76.808 23.3689 76.616 23.1983 76.36C23.0276 76.0933 22.9423 75.7627 22.9423 75.368V69.752H21.8063V68.648H22.9423V65.864H24.3503V68.648H26.2223V69.752H24.3503V74.936C24.3716 75.2347 24.4729 75.4587 24.6543 75.608C24.8356 75.7467 25.0489 75.816 25.2943 75.816C25.5716 75.816 25.8276 75.768 26.0623 75.672C26.2969 75.576 26.4516 75.5067 26.5263 75.464L26.8623 76.584ZM27.5113 74.584C27.5113 74.0507 27.6606 73.592 27.9593 73.208C28.2686 72.8133 28.6899 72.5093 29.2233 72.296C29.7566 72.0827 30.3753 71.976 31.0793 71.976C31.4526 71.976 31.8473 72.008 32.2633 72.072C32.6793 72.1253 33.0473 72.2107 33.3673 72.328V71.72C33.3673 71.08 33.1753 70.5787 32.7913 70.216C32.4073 69.8427 31.8633 69.656 31.1593 69.656C30.7006 69.656 30.2579 69.7413 29.8313 69.912C29.4153 70.072 28.9726 70.3067 28.5033 70.616L27.9913 69.624C28.5353 69.2507 29.0793 68.9733 29.6233 68.792C30.1673 68.6 30.7326 68.504 31.3193 68.504C32.3859 68.504 33.2286 68.8027 33.8473 69.4C34.4659 69.9867 34.7753 70.808 34.7753 71.864V75.4C34.7753 75.5707 34.8073 75.6987 34.8713 75.784C34.9459 75.8587 35.0633 75.9013 35.2233 75.912V77C35.0846 77.0213 34.9619 77.0373 34.8553 77.048C34.7593 77.0587 34.6793 77.064 34.6153 77.064C34.2846 77.064 34.0339 76.9733 33.8633 76.792C33.7033 76.6107 33.6126 76.4187 33.5913 76.216L33.5593 75.688C33.1966 76.1573 32.7219 76.52 32.1353 76.776C31.5486 77.032 30.9673 77.16 30.3913 77.16C29.8366 77.16 29.3406 77.048 28.9033 76.824C28.4659 76.5893 28.1246 76.28 27.8793 75.896C27.6339 75.5013 27.5113 75.064 27.5113 74.584ZM32.9513 75.176C33.0793 75.0267 33.1806 74.8773 33.2553 74.728C33.3299 74.568 33.3673 74.4347 33.3673 74.328V73.288C33.0366 73.16 32.6899 73.064 32.3273 73C31.9646 72.9253 31.6073 72.888 31.2552 72.888C30.5406 72.888 29.9593 73.032 29.5113 73.32C29.0739 73.5973 28.8553 73.9813 28.8553 74.472C28.8553 74.7387 28.9246 75 29.0633 75.256C29.2126 75.5013 29.4259 75.704 29.7033 75.864C29.9913 76.024 30.3433 76.104 30.7593 76.104C31.1966 76.104 31.6126 76.0187 32.0073 75.848C32.4019 75.6667 32.7166 75.4427 32.9513 75.176ZM40.3546 77.096C39.7893 77.096 39.2666 76.984 38.7866 76.76C38.3173 76.5253 37.912 76.2107 37.5706 75.816C37.2293 75.4107 36.9626 74.952 36.7706 74.44C36.5893 73.928 36.4986 73.3947 36.4986 72.84C36.4986 72.2533 36.5893 71.6987 36.7706 71.176C36.9626 70.6533 37.2293 70.1947 37.5706 69.8C37.9226 69.3947 38.3333 69.08 38.8026 68.856C39.272 68.6213 39.7946 68.504 40.3706 68.504C41.064 68.504 41.6666 68.6747 42.1786 69.016C42.7013 69.3573 43.1386 69.7893 43.4906 70.312V68.648H44.7386V76.904C44.7386 77.6933 44.5466 78.36 44.1626 78.904C43.7893 79.448 43.2773 79.8587 42.6266 80.136C41.9866 80.424 41.272 80.568 40.4826 80.568C39.544 80.568 38.776 80.4027 38.1786 80.072C37.5813 79.7413 37.0853 79.2933 36.6906 78.728L37.5066 78.008C37.8373 78.4987 38.264 78.8667 38.7866 79.112C39.32 79.3573 39.8853 79.48 40.4826 79.48C40.9946 79.48 41.464 79.384 41.8906 79.192C42.328 79.0107 42.6746 78.728 42.9306 78.344C43.1973 77.96 43.3306 77.48 43.3306 76.904V75.432C43.0213 75.944 42.5946 76.3493 42.0506 76.648C41.5173 76.9467 40.952 77.096 40.3546 77.096ZM40.7866 75.944C41.0853 75.944 41.3733 75.8907 41.6506 75.784C41.928 75.6773 42.184 75.5387 42.4186 75.368C42.6533 75.1867 42.8506 74.984 43.0106 74.76C43.1706 74.536 43.2773 74.3067 43.3306 74.072V71.672C43.1813 71.288 42.968 70.952 42.6906 70.664C42.4133 70.3653 42.0986 70.136 41.7466 69.976C41.3946 69.8053 41.032 69.72 40.6586 69.72C40.232 69.72 39.848 69.8107 39.5066 69.992C39.176 70.1733 38.8933 70.4187 38.6586 70.728C38.424 71.0267 38.2426 71.3627 38.1146 71.736C37.9866 72.1093 37.9226 72.488 37.9226 72.872C37.9226 73.288 37.9973 73.6827 38.1466 74.056C38.296 74.4187 38.4986 74.744 38.7546 75.032C39.0106 75.32 39.3146 75.544 39.6666 75.704C40.0186 75.864 40.392 75.944 40.7866 75.944ZM51.427 69.88C50.723 69.8907 50.099 70.072 49.555 70.424C49.0217 70.7653 48.643 71.24 48.419 71.848V77H47.011V68.648H48.323V70.584C48.611 70.008 48.9897 69.544 49.459 69.192C49.939 68.8293 50.4403 68.6267 50.963 68.584C51.0697 68.584 51.1603 68.584 51.235 68.584C51.3097 68.584 51.3737 68.5893 51.427 68.6V69.88ZM52.1675 74.584C52.1675 74.0507 52.3168 73.592 52.6155 73.208C52.9248 72.8133 53.3462 72.5093 53.8795 72.296C54.4128 72.0827 55.0315 71.976 55.7355 71.976C56.1088 71.976 56.5035 72.008 56.9195 72.072C57.3355 72.1253 57.7035 72.2107 58.0235 72.328V71.72C58.0235 71.08 57.8315 70.5787 57.4475 70.216C57.0635 69.8427 56.5195 69.656 55.8155 69.656C55.3568 69.656 54.9142 69.7413 54.4875 69.912C54.0715 70.072 53.6288 70.3067 53.1595 70.616L52.6475 69.624C53.1915 69.2507 53.7355 68.9733 54.2795 68.792C54.8235 68.6 55.3888 68.504 55.9755 68.504C57.0422 68.504 57.8848 68.8027 58.5035 69.4C59.1222 69.9867 59.4315 70.808 59.4315 71.864V75.4C59.4315 75.5707 59.4635 75.6987 59.5275 75.784C59.6022 75.8587 59.7195 75.9013 59.8795 75.912V77C59.7408 77.0213 59.6182 77.0373 59.5115 77.048C59.4155 77.0587 59.3355 77.064 59.2715 77.064C58.9408 77.064 58.6902 76.9733 58.5195 76.792C58.3595 76.6107 58.2688 76.4187 58.2475 76.216L58.2155 75.688C57.8528 76.1573 57.3782 76.52 56.7915 76.776C56.2048 77.032 55.6235 77.16 55.0475 77.16C54.4928 77.16 53.9968 77.048 53.5595 76.824C53.1222 76.5893 52.7808 76.28 52.5355 75.896C52.2902 75.5013 52.1675 75.064 52.1675 74.584ZM57.6075 75.176C57.7355 75.0267 57.8368 74.8773 57.9115 74.728C57.9862 74.568 58.0235 74.4347 58.0235 74.328V73.288C57.6928 73.16 57.3462 73.064 56.9835 73C56.6208 72.9253 56.2635 72.888 55.9115 72.888C55.1968 72.888 54.6155 73.032 54.1675 73.32C53.7302 73.5973 53.5115 73.9813 53.5115 74.472C53.5115 74.7387 53.5808 75 53.7195 75.256C53.8688 75.5013 54.0822 75.704 54.3595 75.864C54.6475 76.024 54.9995 76.104 55.4155 76.104C55.8528 76.104 56.2688 76.0187 56.6635 75.848C57.0582 75.6667 57.3728 75.4427 57.6075 75.176ZM74.2749 77H72.8669V72.328C72.8669 71.4533 72.7229 70.808 72.4349 70.392C72.1575 69.976 71.7415 69.768 71.1869 69.768C70.6215 69.768 70.1095 69.976 69.6509 70.392C69.1922 70.7973 68.8669 71.3253 68.6749 71.976V77H67.2669V72.328C67.2669 71.4427 67.1282 70.7973 66.8509 70.392C66.5735 69.976 66.1575 69.768 65.6029 69.768C65.0482 69.768 64.5362 69.9707 64.0669 70.376C63.6082 70.7707 63.2829 71.2987 63.0909 71.96V77H61.6829V68.648H62.9629V70.44C63.3042 69.8213 63.7469 69.3467 64.2909 69.016C64.8349 68.6747 65.4482 68.504 66.1309 68.504C66.8242 68.504 67.3789 68.696 67.7949 69.08C68.2109 69.4533 68.4669 69.9387 68.5629 70.536C68.9362 69.8747 69.3895 69.3733 69.9229 69.032C70.4562 68.68 71.0642 68.504 71.7469 68.504C72.2269 68.504 72.6269 68.5947 72.9469 68.776C73.2775 68.9467 73.5389 69.192 73.7309 69.512C73.9229 69.8213 74.0615 70.1893 74.1469 70.616C74.2322 71.0427 74.2749 71.5067 74.2749 72.008V77Z" fill="#373737"/>
<rect x="10" width="56" height="56" rx="28" fill="#DF5DFF"/>
<path d="M43.6585 14H32.3403C30.129 14.0028 28.009 14.8826 26.4455 16.4463C24.882 18.0101 24.0025 20.1301 24 22.3415V33.6597C24.0028 35.871 24.8826 37.991 26.4463 39.5545C28.0101 41.118 30.1301 41.9975 32.3415 42H43.6597C45.871 41.9972 47.991 41.1174 49.5545 39.5537C51.118 37.9899 51.9975 35.8699 52 33.6585V22.3403C51.9972 20.129 51.1174 18.009 49.5537 16.4455C47.9899 14.882 45.8699 14.0025 43.6585 14V14ZM49.1828 33.6585C49.1826 35.1236 48.6005 36.5286 47.5646 37.5646C46.5286 38.6005 45.1236 39.1826 43.6585 39.1828H32.3403C30.8752 39.1826 29.4702 38.6005 28.4343 37.5646C27.3983 36.5286 26.8162 35.1236 26.8161 33.6585V22.3403C26.8161 20.8752 27.3981 19.4701 28.4341 18.4341C29.4701 17.3981 30.8752 16.8161 32.3403 16.8161H43.6585C44.384 16.8161 45.1023 16.959 45.7726 17.2366C46.4428 17.5142 47.0518 17.9211 47.5647 18.4341C48.0777 18.9471 48.4846 19.556 48.7623 20.2263C49.0399 20.8965 49.1828 21.6148 49.1828 22.3403V33.6585Z" fill="white"/>
<path d="M37.9999 19.6649C36.3514 19.6649 34.7399 20.1538 33.3693 21.0696C31.9986 21.9855 30.9302 23.2872 30.2994 24.8103C29.6685 26.3333 29.5035 28.0092 29.8251 29.626C30.1467 31.2429 30.9405 32.728 32.1062 33.8937C33.2719 35.0594 34.757 35.8532 36.3739 36.1748C37.9907 36.4964 39.6666 36.3314 41.1896 35.7005C42.7126 35.0696 44.0144 34.0013 44.9303 32.6306C45.8461 31.2599 46.335 29.6484 46.335 27.9999C46.3325 25.7901 45.4535 23.6715 43.891 22.1089C42.3284 20.5464 40.2098 19.6674 37.9999 19.6649V19.6649ZM37.9999 33.0943C36.9926 33.0943 36.0079 32.7956 35.1703 32.236C34.3327 31.6763 33.6799 30.8809 33.2944 29.9502C32.9089 29.0195 32.8081 27.9955 33.0046 27.0075C33.2011 26.0195 33.6862 25.112 34.3985 24.3997C35.1108 23.6874 36.0183 23.2023 37.0063 23.0058C37.9943 22.8093 39.0184 22.9101 39.949 23.2956C40.8797 23.6811 41.6751 24.3339 42.2348 25.1715C42.7944 26.0091 43.0931 26.9938 43.0931 28.0011C43.0932 28.67 42.9615 29.3323 42.7056 29.9503C42.4497 30.5683 42.0745 31.1298 41.6016 31.6027C41.1286 32.0757 40.5671 32.4508 39.9491 32.7068C39.3311 32.9627 38.6688 33.0944 37.9999 33.0943V33.0943Z" fill="white"/>
<path d="M45.4214 22.1021C46.2246 22.1021 46.8758 21.4509 46.8758 20.6477C46.8758 19.8445 46.2246 19.1934 45.4214 19.1934C44.6182 19.1934 43.967 19.8445 43.967 20.6477C43.967 21.4509 44.6182 22.1021 45.4214 22.1021Z" fill="white"/>
</svg>
