<svg width="64" height="81" viewBox="0 0 64 81" fill="none" xmlns="http://www.w3.org/2000/svg">
<path d="M1.36 77V65.64H2.8V75.72H9.136V77H1.36ZM10.4798 77V68.648H11.8878V77H10.4798ZM10.4798 67.08V65.32H11.8878V67.08H10.4798ZM21.4153 77H20.0073V72.328C20.0073 71.4427 19.8686 70.7973 19.5913 70.392C19.3246 69.976 18.9139 69.768 18.3593 69.768C17.9753 69.768 17.5913 69.864 17.2073 70.056C16.8339 70.248 16.4979 70.5093 16.1993 70.84C15.9113 71.16 15.7033 71.5333 15.5753 71.96V77H14.1673V68.648H15.4473V70.44C15.6713 70.0453 15.9593 69.704 16.3113 69.416C16.6633 69.128 17.0633 68.904 17.5113 68.744C17.9593 68.584 18.4286 68.504 18.9193 68.504C19.3993 68.504 19.7993 68.5947 20.1193 68.776C20.4499 68.9467 20.7059 69.192 20.8873 69.512C21.0793 69.8213 21.2126 70.1893 21.2873 70.616C21.3726 71.0427 21.4153 71.5067 21.4153 72.008V77ZM29.4928 77L26.5968 72.936L25.0128 74.424V77H23.6048V65.32H25.0128V72.952L29.3328 68.664H30.8528L27.5248 72.12L31.0128 77H29.4928ZM35.4883 77.16C34.8589 77.16 34.2829 77.048 33.7603 76.824C33.2483 76.5893 32.8003 76.2747 32.4163 75.88C32.0429 75.4747 31.7496 75.0107 31.5363 74.488C31.3336 73.9653 31.2323 73.4107 31.2323 72.824C31.2323 72.0347 31.4136 71.3147 31.7763 70.664C32.1389 70.0133 32.6403 69.4907 33.2803 69.096C33.9309 68.7013 34.6723 68.504 35.5043 68.504C36.3469 68.504 37.0776 68.7067 37.6963 69.112C38.3256 69.5067 38.8109 70.0293 39.1523 70.68C39.5043 71.32 39.6803 72.0133 39.6803 72.76C39.6803 72.8667 39.6749 72.9733 39.6643 73.08C39.6643 73.176 39.6589 73.2507 39.6483 73.304H32.7203C32.7629 73.848 32.9123 74.3333 33.1683 74.76C33.4349 75.176 33.7763 75.5067 34.1923 75.752C34.6083 75.9867 35.0563 76.104 35.5363 76.104C36.0483 76.104 36.5283 75.976 36.9763 75.72C37.4349 75.464 37.7496 75.128 37.9203 74.712L39.1363 75.048C38.9549 75.4533 38.6829 75.816 38.3203 76.136C37.9683 76.456 37.5469 76.7067 37.0563 76.888C36.5763 77.0693 36.0536 77.16 35.4883 77.16ZM32.6723 72.328H38.3683C38.3256 71.784 38.1709 71.304 37.9043 70.888C37.6376 70.472 37.2963 70.1467 36.8803 69.912C36.4643 69.6773 36.0056 69.56 35.5043 69.56C35.0136 69.56 34.5603 69.6773 34.1443 69.912C33.7283 70.1467 33.3869 70.472 33.1203 70.888C32.8643 71.304 32.7149 71.784 32.6723 72.328ZM40.7014 72.84C40.7014 72.0507 40.8614 71.3307 41.1814 70.68C41.512 70.0187 41.96 69.4907 42.5254 69.096C43.1014 68.7013 43.7574 68.504 44.4934 68.504C45.1654 68.504 45.768 68.68 46.3014 69.032C46.8347 69.384 47.2507 69.8107 47.5494 70.312V65.32H48.9574V75.4C48.9574 75.5707 48.9894 75.6987 49.0534 75.784C49.128 75.8587 49.2454 75.9013 49.4054 75.912V77C49.1387 77.0427 48.9307 77.064 48.7814 77.064C48.504 77.064 48.2587 76.968 48.0454 76.776C47.8427 76.584 47.7414 76.3707 47.7414 76.136V75.432C47.4107 75.9653 46.968 76.3867 46.4134 76.696C45.8587 77.0053 45.2827 77.16 44.6854 77.16C44.1094 77.16 43.576 77.048 43.0854 76.824C42.6054 76.5893 42.184 76.2693 41.8214 75.864C41.4694 75.4587 41.192 75 40.9894 74.488C40.7974 73.9653 40.7014 73.416 40.7014 72.84ZM47.5494 74.072V71.672C47.4214 71.3093 47.2134 70.984 46.9254 70.696C46.6374 70.3973 46.312 70.1627 45.9494 69.992C45.5974 69.8107 45.2454 69.72 44.8934 69.72C44.4774 69.72 44.0987 69.8107 43.7574 69.992C43.4267 70.1627 43.1387 70.3973 42.8934 70.696C42.6587 70.984 42.4774 71.3147 42.3494 71.688C42.2214 72.0613 42.1574 72.4507 42.1574 72.856C42.1574 73.272 42.2267 73.6667 42.3654 74.04C42.5147 74.4133 42.7174 74.744 42.9734 75.032C43.24 75.32 43.544 75.544 43.8854 75.704C44.2374 75.864 44.616 75.944 45.0214 75.944C45.2774 75.944 45.5387 75.896 45.8054 75.8C46.0827 75.704 46.344 75.5707 46.5894 75.4C46.8347 75.2293 47.0427 75.032 47.2134 74.808C47.384 74.5733 47.496 74.328 47.5494 74.072ZM51.3079 77V68.648H52.7159V77H51.3079ZM51.3079 67.08V65.32H52.7159V67.08H51.3079ZM62.2434 77H60.8354V72.328C60.8354 71.4427 60.6967 70.7973 60.4194 70.392C60.1527 69.976 59.742 69.768 59.1874 69.768C58.8034 69.768 58.4194 69.864 58.0354 70.056C57.662 70.248 57.326 70.5093 57.0274 70.84C56.7394 71.16 56.5314 71.5333 56.4034 71.96V77H54.9954V68.648H56.2754V70.44C56.4994 70.0453 56.7874 69.704 57.1394 69.416C57.4914 69.128 57.8914 68.904 58.3394 68.744C58.7874 68.584 59.2567 68.504 59.7474 68.504C60.2274 68.504 60.6274 68.5947 60.9474 68.776C61.278 68.9467 61.534 69.192 61.7154 69.512C61.9074 69.8213 62.0407 70.1893 62.1154 70.616C62.2007 71.0427 62.2434 71.5067 62.2434 72.008V77Z" fill="#373737"/>
<rect x="4" width="56" height="56" rx="28" fill="#0080A9"/>
<path d="M46 30.0952V39.9175H40.3762V30.7556C40.3762 28.4444 39.5611 26.8762 37.5235 26.8762C35.9749 26.8762 34.9969 27.9492 34.5893 28.9397C34.4263 29.2698 34.4263 29.8476 34.4263 30.3429V39.9175H28.8025C28.8025 39.9175 28.884 24.3175 28.8025 22.7492H34.4263V25.2254C34.4263 25.2254 34.4263 25.2254 34.4263 25.3079V25.2254C35.1599 24.0698 36.5455 22.419 39.4796 22.419C43.2288 22.3365 46 24.8127 46 30.0952ZM20 40H25.6238V22.7492H20V40ZM25.7868 16.9714C25.7868 18.6222 24.4828 19.9429 22.8527 19.9429C21.3041 19.8603 20 18.5397 20 16.9714C20 15.4032 21.3041 14 22.9342 14C24.4828 14 25.7868 15.3206 25.7868 16.9714Z" fill="white"/>
</svg>
