<svg width="56" height="81" viewBox="0 0 56 81" fill="none" xmlns="http://www.w3.org/2000/svg">
<path d="M13.552 66.92H9.632V77H8.192V66.92H4.272V65.64H13.552V66.92ZM14.9641 77V68.648H16.3721V77H14.9641ZM14.9641 67.08V65.32H16.3721V67.08H14.9641ZM24.5396 77L21.6436 72.936L20.0596 74.424V77H18.6516V65.32H20.0596V72.952L24.3796 68.664H25.8996L22.5716 72.12L26.0596 77H24.5396ZM34.4739 66.92H30.5539V77H29.1139V66.92H25.1939V65.64H34.4739V66.92ZM37.7528 77.16C37.1234 77.16 36.5528 77.048 36.0408 76.824C35.5288 76.5893 35.0861 76.2747 34.7128 75.88C34.3394 75.4747 34.0514 75.0107 33.8488 74.488C33.6461 73.9653 33.5448 73.416 33.5448 72.84C33.5448 72.2533 33.6461 71.6987 33.8488 71.176C34.0514 70.6533 34.3394 70.1947 34.7128 69.8C35.0861 69.3947 35.5288 69.08 36.0408 68.856C36.5634 68.6213 37.1341 68.504 37.7528 68.504C38.3821 68.504 38.9528 68.6213 39.4648 68.856C39.9768 69.08 40.4194 69.3947 40.7928 69.8C41.1768 70.1947 41.4701 70.6533 41.6728 71.176C41.8754 71.6987 41.9768 72.2533 41.9768 72.84C41.9768 73.416 41.8754 73.9653 41.6728 74.488C41.4701 75.0107 41.1821 75.4747 40.8088 75.88C40.4354 76.2747 39.9874 76.5893 39.4648 76.824C38.9528 77.048 38.3821 77.16 37.7528 77.16ZM34.9848 72.856C34.9848 73.432 35.1074 73.9547 35.3528 74.424C35.6088 74.8933 35.9448 75.2667 36.3608 75.544C36.7768 75.8107 37.2408 75.944 37.7528 75.944C38.2648 75.944 38.7288 75.8053 39.1448 75.528C39.5714 75.2507 39.9074 74.8773 40.1528 74.408C40.4088 73.928 40.5368 73.4 40.5368 72.824C40.5368 72.248 40.4088 71.7253 40.1528 71.256C39.9074 70.7867 39.5714 70.4133 39.1448 70.136C38.7288 69.8587 38.2648 69.72 37.7528 69.72C37.2408 69.72 36.7768 69.864 36.3608 70.152C35.9448 70.4293 35.6088 70.8027 35.3528 71.272C35.1074 71.7413 34.9848 72.2693 34.9848 72.856ZM49.5709 77L46.6749 72.936L45.0909 74.424V77H43.6829V65.32H45.0909V72.952L49.4109 68.664H50.9309L47.6029 72.12L51.0909 77H49.5709Z" fill="#373737"/>
<rect width="56" height="56" rx="28" fill="black"/>
<path d="M38.084 22.0012C36.7116 22.0012 35.4453 21.5466 34.4284 20.7796C33.2622 19.9003 32.4243 18.6106 32.1284 17.124C32.0551 16.7567 32.0157 16.3777 32.0119 15.9893H28.0915V26.7018L28.0868 32.5696C28.0868 34.1383 27.0652 35.4685 25.6491 35.9363C25.2381 36.072 24.7943 36.1363 24.3321 36.111C23.7422 36.0786 23.1894 35.9006 22.7089 35.6131C21.6864 35.0016 20.9931 33.8922 20.9743 32.6231C20.9447 30.6396 22.5482 29.0225 24.5303 29.0225C24.9216 29.0225 25.2973 29.0864 25.6491 29.2024V26.2744V25.2218C25.2781 25.1669 24.9004 25.1382 24.5186 25.1382C22.3491 25.1382 20.3201 26.04 18.8697 27.6647C17.7734 28.8924 17.1159 30.4588 17.0144 32.1013C16.8815 34.259 17.6711 36.3101 19.2022 37.8235C19.4272 38.0456 19.6635 38.2518 19.9105 38.442C21.2233 39.4523 22.8282 40 24.5186 40C24.9004 40 25.2781 39.9718 25.6491 39.9168C27.2282 39.6829 28.6851 38.9601 29.8349 37.8235C31.2477 36.4271 32.0283 34.5732 32.0368 32.6001L32.0166 23.8377C32.6906 24.3576 33.4275 24.7878 34.2185 25.1218C35.4486 25.6408 36.7529 25.9038 38.0953 25.9033V23.0566V22.0003C38.0962 22.0012 38.0849 22.0012 38.084 22.0012V22.0012Z" fill="white"/>
</svg>
