<svg width="56" height="81" viewBox="0 0 56 81" fill="none" xmlns="http://www.w3.org/2000/svg">
<path d="M11.552 66.92H7.632V77H6.192V66.92H2.272V65.64H11.552V66.92ZM22.1156 68.648H23.4756L19.9236 77H18.6916L17.0756 73.064L15.4756 77H14.2436L10.6916 68.648H12.0356L14.9156 75.608L16.2596 72.184L14.8516 68.664H16.0836L17.0756 71.32L18.0676 68.664H19.2996L17.9076 72.184L19.2516 75.608L22.1156 68.648ZM24.7923 77V68.648H26.2003V77H24.7923ZM24.7923 67.08V65.32H26.2003V67.08H24.7923ZM32.7998 76.584C32.6824 76.6373 32.5224 76.7067 32.3198 76.792C32.1171 76.8773 31.8824 76.952 31.6158 77.016C31.3491 77.08 31.0664 77.112 30.7678 77.112C30.4264 77.112 30.1118 77.0533 29.8238 76.936C29.5358 76.808 29.3064 76.616 29.1358 76.36C28.9651 76.0933 28.8798 75.7627 28.8798 75.368V69.752H27.7438V68.648H28.8798V65.864H30.2878V68.648H32.1598V69.752H30.2878V74.936C30.3091 75.2347 30.4104 75.4587 30.5918 75.608C30.7731 75.7467 30.9864 75.816 31.2318 75.816C31.5091 75.816 31.7651 75.768 31.9998 75.672C32.2344 75.576 32.3891 75.5067 32.4638 75.464L32.7998 76.584ZM38.4248 76.584C38.3074 76.6373 38.1474 76.7067 37.9448 76.792C37.7421 76.8773 37.5074 76.952 37.2408 77.016C36.9741 77.08 36.6914 77.112 36.3928 77.112C36.0514 77.112 35.7368 77.0533 35.4488 76.936C35.1608 76.808 34.9314 76.616 34.7608 76.36C34.5901 76.0933 34.5048 75.7627 34.5048 75.368V69.752H33.3688V68.648H34.5048V65.864H35.9128V68.648H37.7848V69.752H35.9128V74.936C35.9341 75.2347 36.0354 75.4587 36.2168 75.608C36.3981 75.7467 36.6114 75.816 36.8568 75.816C37.1341 75.816 37.3901 75.768 37.6248 75.672C37.8594 75.576 38.0141 75.5067 38.0888 75.464L38.4248 76.584ZM43.3164 77.16C42.687 77.16 42.111 77.048 41.5884 76.824C41.0764 76.5893 40.6284 76.2747 40.2444 75.88C39.871 75.4747 39.5777 75.0107 39.3644 74.488C39.1617 73.9653 39.0604 73.4107 39.0604 72.824C39.0604 72.0347 39.2417 71.3147 39.6044 70.664C39.967 70.0133 40.4684 69.4907 41.1084 69.096C41.759 68.7013 42.5004 68.504 43.3324 68.504C44.175 68.504 44.9057 68.7067 45.5244 69.112C46.1537 69.5067 46.639 70.0293 46.9804 70.68C47.3324 71.32 47.5084 72.0133 47.5084 72.76C47.5084 72.8667 47.503 72.9733 47.4924 73.08C47.4924 73.176 47.487 73.2507 47.4764 73.304H40.5484C40.591 73.848 40.7404 74.3333 40.9964 74.76C41.263 75.176 41.6044 75.5067 42.0204 75.752C42.4364 75.9867 42.8844 76.104 43.3644 76.104C43.8764 76.104 44.3564 75.976 44.8044 75.72C45.263 75.464 45.5777 75.128 45.7484 74.712L46.9644 75.048C46.783 75.4533 46.511 75.816 46.1484 76.136C45.7964 76.456 45.375 76.7067 44.8844 76.888C44.4044 77.0693 43.8817 77.16 43.3164 77.16ZM40.5004 72.328H46.1964C46.1537 71.784 45.999 71.304 45.7324 70.888C45.4657 70.472 45.1244 70.1467 44.7084 69.912C44.2924 69.6773 43.8337 69.56 43.3324 69.56C42.8417 69.56 42.3884 69.6773 41.9724 69.912C41.5564 70.1467 41.215 70.472 40.9484 70.888C40.6924 71.304 40.543 71.784 40.5004 72.328ZM53.4895 69.88C52.7855 69.8907 52.1615 70.072 51.6175 70.424C51.0842 70.7653 50.7055 71.24 50.4815 71.848V77H49.0735V68.648H50.3855V70.584C50.6735 70.008 51.0522 69.544 51.5215 69.192C52.0015 68.8293 52.5028 68.6267 53.0255 68.584C53.1322 68.584 53.2228 68.584 53.2975 68.584C53.3722 68.584 53.4362 68.5893 53.4895 68.6V69.88Z" fill="#363636"/>
<rect width="56" height="56" rx="28" fill="#00B2FF"/>
<path d="M42 20.4858C41.022 20.9099 39.9876 21.1917 38.9288 21.3227C40.0446 20.6647 40.8788 19.6227 41.2735 18.3941C40.2287 19.0101 39.0855 19.4439 37.8934 19.6768C37.1626 18.9009 36.214 18.3616 35.1707 18.1287C34.1275 17.8959 33.038 17.9803 32.0436 18.371C31.0493 18.7618 30.1962 19.4408 29.5951 20.3198C28.994 21.1988 28.6728 22.2372 28.6731 23.3001C28.6689 23.7061 28.7103 24.1114 28.7965 24.5083C26.6761 24.4048 24.6015 23.8577 22.7084 22.9026C20.8153 21.9475 19.1462 20.6059 17.8104 18.9657C17.1243 20.1314 16.9118 21.5135 17.2162 22.8297C17.5206 24.146 18.319 25.2971 19.4483 26.0479C18.605 26.0252 17.7796 25.8014 17.0416 25.3953V25.4533C17.043 26.6769 17.4685 27.8626 18.2463 28.8108C19.0241 29.7591 20.1068 30.412 21.3121 30.6597C20.8561 30.7792 20.3861 30.8379 19.9145 30.8343C19.5759 30.8408 19.2376 30.8111 18.9054 30.7456C19.2499 31.7973 19.9138 32.7169 20.8057 33.3779C21.6977 34.0389 22.7738 34.4088 23.886 34.4367C21.9988 35.9039 19.6713 36.6996 17.2756 36.6968C16.8492 36.6989 16.4231 36.6739 16 36.6219C18.4372 38.1835 21.2774 39.0098 24.177 39.0007C33.9852 39.0007 39.3477 30.9238 39.3477 23.9226C39.3477 23.6882 39.3397 23.4622 39.3281 23.2376C40.3796 22.4895 41.2851 21.5569 42 20.4858V20.4858Z" fill="white"/>
</svg>
